<?xml version="1.0" encoding="utf-8"?>
<!-- Generator: Adobe Illustrator 23.0.0, SVG Export Plug-In . SVG Version: 6.00 Build 0)  -->
<svg version="1.1" id="Layer_1" xmlns="http://www.w3.org/2000/svg" xmlns:xlink="http://www.w3.org/1999/xlink" x="0px" y="0px"
	 viewBox="0 0 282 150" style="enable-background:new 0 0 282 150;" xml:space="preserve">
<style type="text/css">
	.st0{fill:#00A34B;}
	.st1{fill:#A6CE39;}
	.st2{clip-path:url(#SVGID_2_);}
	.st3{clip-path:url(#SVGID_4_);}
	.st4{fill:#2376BC;}
	.st5{fill:#2CACE3;}
</style>
<g>
	<g>
		<g>
			<path d="M161.92,33.21h7.89c1.16,0,1.29,0.17,1.29,1.41v11.25c0,0.98-0.17,1.24-0.95,1.56c-3.09,1.33-6.42,1.99-9.78,1.93
				c-10.94,0-15.54-6.44-15.54-15.58c0-9.49,4.51-15.88,15.71-15.88c4.63,0,7.42,1.12,9.19,2.34c0.7,0.54,1.12,1.35,1.16,2.23
				c0,0.6-0.13,0.91-0.65,0.69c-2.9-1.7-6.21-2.56-9.57-2.49c-9.27,0-12.5,5.24-12.5,13.14c0,7.42,3.01,12.79,12.2,12.79
				c2.63,0.07,5.23-0.45,7.64-1.5v-9.2h-5.02c-1.1,0.1-2.08-0.7-2.18-1.8c-0.01-0.09-0.01-0.17-0.01-0.26
				C160.79,33.25,161.05,33.21,161.92,33.21"/>
			<path d="M179.47,39.69v7.95c0,1.03-0.17,1.2-1.2,1.2h-0.6c-0.98,0-1.2-0.17-1.2-1.2v-17.6c0-0.78,0-1.07,0.6-1.07
				c1.71,0,2.4,0.73,2.4,2.41v1.37c1.08-3.13,3.05-4.25,5.54-4.25s3.13,0.95,3.13,2.34c0,0.69-0.09,0.86-0.69,0.73
				c-0.76-0.22-1.55-0.33-2.34-0.34c-3.73,0-5.54,3.17-5.63,8.49"/>
			<path d="M204.87,46.6v-0.55c-1.2,1.71-3.39,3.05-6.61,3.05c-4.93,0-6.91-2.88-6.91-7.52V30.03c0-0.78,0-1.07,0.6-1.07
				c1.71,0,2.4,0.73,2.4,2.4v10.16c0,2.74,1.29,4.76,4.64,4.76c3.77,0,5.53-2.19,5.88-5.15V30.03c0-0.78,0-1.07,0.6-1.07
				c1.72,0,2.45,0.73,2.45,2.4v16.57c0,0.78,0,1.08-0.59,1.08C205.61,49.01,204.87,48.27,204.87,46.6"/>
			<path d="M216.8,45.7v11.8c0,1.02-0.17,1.2-1.2,1.2H215c-0.99,0-1.2-0.17-1.2-1.2V30.03c0-0.78,0-1.07,0.6-1.07
				c1.72,0,2.41,0.73,2.41,2.41v1.02c1.41-2.19,3.73-3.69,7.38-3.69c6.05,0,9.38,4.2,9.38,10.31s-3.3,10.16-9.45,10.16
				c-3.6,0-5.97-1.42-7.34-3.48 M223.48,46.37c4.63,0,6.87-3.18,6.87-7.38s-2.23-7.56-6.83-7.56c-4.89,0-6.91,3.73-6.91,7.56
				S218.54,46.37,223.48,46.37"/>
			<path d="M247.45,28.65c6.52,0,10.26,4.08,10.26,10.31s-3.73,10.16-10.26,10.16c-6.66,0-10.31-3.95-10.31-10.16
				S240.8,28.65,247.45,28.65 M247.45,46.47c4.59,0,7.08-3.05,7.08-7.51s-2.48-7.64-7.08-7.64s-7.17,3.18-7.17,7.64
				S242.82,46.47,247.45,46.47"/>
		</g>
		<g>
			<path class="st0" d="M144.83,87.55V59.78c0-1.25,0.21-1.46,1.41-1.46h14.68c0.73,0,0.95,0.04,0.95,0.55
				c0,1.12-0.86,2.15-2.92,2.15h-11.03v10.52h10.52c0.73,0,0.95,0.05,0.95,0.55c0,1.12-0.86,2.15-2.92,2.15h-8.54v11.77h12.58
				c0.95,0,1.12,0.17,1.12,1.02v0.65c0,0.86-0.17,1.03-1.12,1.03h-14.42C145.04,88.71,144.83,88.54,144.83,87.55"/>
			<path class="st0" d="M181.14,88.71h-0.64c-0.98,0-1.2-0.17-1.2-1.2V76.48c0-3.13-1.24-5.28-4.85-5.28
				c-3.61,0-5.32,2.27-5.62,5.47v10.86c0,1.03-0.17,1.2-1.2,1.2h-0.6c-0.99,0-1.2-0.17-1.2-1.2V69.91c0-0.78,0-1.07,0.6-1.07
				c1.72,0,2.41,0.73,2.41,2.4v0.3c1.16-1.67,3.22-3.01,6.44-3.01c5.02,0,7.08,3.01,7.08,7.73v11.25
				C182.34,88.54,182.13,88.71,181.14,88.71"/>
			<path class="st0" d="M190.28,80.19c0.34,4.64,2.96,6.1,7.09,6.1c2.62,0,5.21-0.58,7.59-1.68c0.6-0.26,0.91-0.09,0.91,0.48
				c0,1.11-0.68,2.1-1.72,2.48c-2.26,1-4.7,1.5-7.17,1.46c-6.05,0-9.91-2.7-9.91-9.79c0-6.91,3.44-10.69,9.62-10.69
				c6.35,0,9.27,3.99,9.27,9.88c0,0.95-0.26,1.76-1.63,1.76H190.28z M190.28,77.75h12.66c-0.13-4.03-2.06-6.61-6.31-6.61
				C192.69,71.14,190.67,73.67,190.28,77.75"/>
			<path class="st0" d="M213.76,79.57v7.95c0,1.03-0.17,1.2-1.2,1.2h-0.59c-0.99,0-1.2-0.17-1.2-1.2v-17.6c0-0.78,0-1.07,0.6-1.07
				c1.71,0,2.4,0.73,2.4,2.41v1.37c1.08-3.13,3.05-4.25,5.54-4.25c2.49,0,3.13,0.95,3.13,2.34c0,0.69-0.09,0.86-0.69,0.73
				c-0.76-0.22-1.55-0.33-2.34-0.34c-3.73,0-5.54,3.17-5.63,8.49"/>
			<path class="st0" d="M225.77,97.08c-1.11-0.55-1.63-1.2-1.63-2.23c0-0.78,0.34-0.9,1.03-0.55c2.35,1.14,4.94,1.71,7.55,1.67
				c3.61,0,7.69-1.16,7.69-8.5l0.04-2.02c-1.37,2.1-3.77,3.56-7.42,3.56c-6.01,0-9.45-4.08-9.45-10.16s3.48-10.35,9.38-10.35
				c3.61,0,6.02,1.51,7.43,3.7v-0.78c0-1.8,0.69-2.62,2.41-2.62c0.55,0,0.6,0.26,0.6,1.2v17.81c0,8.71-5.11,10.69-10.44,10.69
				c-3.77,0-6.01-0.78-7.21-1.46 M233.61,71.26c-4.59,0-6.83,3.3-6.83,7.56s2.23,7.43,6.87,7.43c4.94,0,6.91-3.65,6.91-7.38
				C240.56,75,238.5,71.26,233.61,71.26"/>
			<path class="st0" d="M251.95,58.92c0.28-0.59,0.92-0.92,1.56-0.82h1.56c0.64,0,0.78,0.39,0.26,0.95l-4.16,4.38
				c-0.29,0.32-0.72,0.48-1.16,0.43h-1.38c-0.34,0-0.48-0.17-0.22-0.52L251.95,58.92z M252.47,71.24v16.27c0,1.03-0.17,1.2-1.16,1.2
				h-0.64c-0.99,0-1.2-0.17-1.2-1.2v-17.6c0-0.78,0.04-1.07,0.6-1.07C251.78,68.84,252.47,69.57,252.47,71.24"/>
			<path class="st0" d="M264.62,77.89c2.09,0.01,4.18,0.14,6.25,0.39v-2.58c0-4.2-3.3-4.59-5.8-4.59c-1.83,0.02-3.65,0.29-5.41,0.78
				c-1.07,0.3-1.24,0.17-1.24-0.38c-0.11-0.99,0.53-1.91,1.5-2.15c1.84-0.54,3.75-0.82,5.66-0.82c2.92,0,8.33,0.69,8.33,6.74v12.5
				c0,0.78-0.04,1.08-0.6,1.08c-1.56,0-2.34-0.6-2.45-1.98c-1.16,0.86-3.3,2.06-7.3,2.06c-4.46,0-6.61-1.94-6.61-5.76
				c0-3.82,2.58-5.32,7.69-5.32 M270.9,80.62c-1.86-0.26-3.74-0.37-5.63-0.34c-3.26,0-5.27,0.38-5.27,2.91s1.63,3.3,4.34,3.3
				c3.56,0,5.32-1.02,6.56-1.97V80.62z"/>
		</g>
		<g>
			<path class="st0" d="M146.04,127.35c-0.99,0-1.2-0.17-1.2-1.12V98.37c0-1.2,0.21-1.41,1.38-1.41h8.37c5.97,0,8.41,3.39,8.41,7.51
				c0,3.91-1.76,6.01-4.46,6.87c4.42,0.73,6.61,3.13,6.61,7.64c0,4.98-3.01,8.38-9.7,8.38H146.04z M147.84,99.57v10.66h6.52
				c3.56,0,5.41-1.97,5.41-5.36c0-2.96-1.46-5.28-5.92-5.28L147.84,99.57z M147.84,112.86v11.87h7.03c5.06,0,7.03-2.4,7.03-5.96
				c0-3.99-2.45-5.92-7.03-5.92L147.84,112.86z"/>
			<path class="st0" d="M179.12,107.17c6.53,0,10.27,4.08,10.27,10.31s-3.73,10.16-10.27,10.16s-10.3-3.95-10.3-10.16
				C168.83,111.26,172.49,107.17,179.12,107.17 M179.12,124.98c4.59,0,7.09-3.05,7.09-7.51c0-4.46-2.49-7.64-7.09-7.64
				s-7.16,3.18-7.16,7.64C171.96,121.93,174.49,124.98,179.12,124.98"/>
			<path class="st0" d="M195.15,135.72c-1.11-0.55-1.63-1.2-1.63-2.23c0-0.78,0.34-0.9,1.02-0.55c2.35,1.14,4.94,1.71,7.56,1.67
				c3.61,0,7.69-1.16,7.69-8.5v-2.02c-1.37,2.1-3.77,3.56-7.42,3.56c-6.01,0-9.45-4.08-9.45-10.16s3.48-10.35,9.38-10.35
				c3.61,0,6.02,1.51,7.43,3.7v-0.78c0-1.8,0.69-2.62,2.41-2.62c0.55,0,0.59,0.26,0.59,1.2v17.81c0,8.71-5.1,10.69-10.43,10.69
				c-3.77,0-6.01-0.78-7.21-1.46 M202.96,109.92c-4.59,0-6.83,3.3-6.83,7.56s2.23,7.43,6.87,7.43c4.94,0,6.91-3.65,6.91-7.38
				C209.91,113.65,207.85,109.92,202.96,109.92"/>
			<path class="st0" d="M227.96,107.17c6.52,0,10.26,4.08,10.26,10.31s-3.73,10.16-10.26,10.16c-6.66,0-10.31-3.95-10.31-10.16
				C217.66,111.26,221.31,107.17,227.96,107.17 M227.96,124.98c4.59,0,7.09-3.05,7.09-7.51c0-4.46-2.49-7.64-7.09-7.64
				s-7.17,3.18-7.17,7.64C220.79,121.93,223.33,124.98,227.96,124.98"/>
			<path class="st0" d="M247.07,102.75v4.69h5.2c0.78,0,0.94,0.13,0.94,0.98v0.65c0,0.9-0.12,0.98-0.94,0.98h-5.2v11.2
				c0,2.91,1.56,3.65,2.83,3.65c1.04,0,2.06-0.27,2.96-0.78c0.48-0.17,0.69-0.09,0.69,0.69c0.02,0.43-0.08,0.87-0.3,1.24
				c-0.65,0.98-1.98,1.56-4.16,1.56c-3.39,0-5.06-2.06-5.06-6.31v-11.21h-2.41c-0.78,0-0.95-0.09-0.95-0.98v-0.65
				c0-0.86,0.13-0.98,0.95-0.98h2.41v-1.41c0-3.13,0.98-4.38,2.4-4.38C247.02,101.68,247.07,101.89,247.07,102.75"/>
			<path class="st0" d="M263.42,116.53c2.09,0.01,4.18,0.14,6.25,0.39v-2.58c0-4.2-3.3-4.59-5.79-4.59
				c-1.83,0.02-3.65,0.28-5.41,0.78c-1.07,0.3-1.24,0.17-1.24-0.38c-0.11-0.99,0.53-1.91,1.5-2.15c1.84-0.54,3.75-0.82,5.67-0.82
				c2.91,0,8.32,0.69,8.32,6.74v12.5c0,0.78,0,1.08-0.6,1.08c-1.56,0-2.34-0.6-2.45-1.98c-1.16,0.86-3.3,2.06-7.3,2.06
				c-4.46,0-6.61-1.94-6.61-5.76c0-3.82,2.58-5.32,7.69-5.32 M269.71,119.25c-1.86-0.26-3.74-0.37-5.62-0.34
				c-3.27,0-5.28,0.38-5.28,2.91s1.63,3.3,4.34,3.3c3.56,0,5.32-1.02,6.56-1.97V119.25z M265.63,97.53
				c0.28-0.59,0.92-0.92,1.56-0.82h1.56c0.64,0,0.78,0.39,0.26,0.95l-4.16,4.38c-0.29,0.32-0.72,0.48-1.16,0.43h-1.35
				c-0.34,0-0.48-0.17-0.22-0.52L265.63,97.53z"/>
		</g>
	</g>
	<g>
		<path class="st1" d="M37.49,111.44c-0.14,0-0.28-0.05-0.39-0.13c-15.71-12.95-17.95-36.18-5.01-51.89c1.6-1.94,3.4-3.72,5.36-5.29
			c0.26-0.21,0.65-0.17,0.86,0.09c0,0,0.01,0.01,0.01,0.01c0.21,0.27,0.16,0.66-0.1,0.87c-15.32,12.34-17.73,34.77-5.39,50.09
			c1.51,1.87,3.2,3.58,5.05,5.11c0.27,0.2,0.32,0.59,0.11,0.85c-0.01,0.01-0.01,0.01-0.02,0.02c-0.11,0.15-0.29,0.23-0.48,0.23"/>
		<g>
			<defs>
				<rect id="SVGID_1_" x="32.23" y="44.93" width="72.98" height="72.96"/>
			</defs>
			<clipPath id="SVGID_2_">
				<use xlink:href="#SVGID_1_"  style="overflow:visible;"/>
			</clipPath>
			<g class="st2">
				<path class="st1" d="M68.75,117.89c-14.01,0.01-26.8-7.99-32.91-20.6c-2.17-4.46-3.4-9.32-3.62-14.28
					c0.02-0.35,0.32-0.61,0.67-0.58c0.29,0.02,0.53,0.24,0.58,0.53c0.1,2.25,0.42,4.48,0.95,6.66c0.59,2.46,1.45,4.86,2.55,7.14
					c8.51,17.49,29.58,24.77,47.07,16.26s24.77-29.58,16.26-47.07c-5.66-11.63-17.23-19.22-30.15-19.78
					c-0.34-0.02-0.61-0.31-0.59-0.65c0.02-0.34,0.31-0.61,0.65-0.59l0,0c20.14,0.91,35.72,17.98,34.81,38.12
					C104.14,102.47,88.19,117.79,68.75,117.89"/>
			</g>
		</g>
		<g>
			<defs>
				<rect id="SVGID_3_" x="34.75" y="36.31" width="63.12" height="73.01"/>
			</defs>
			<clipPath id="SVGID_4_">
				<use xlink:href="#SVGID_3_"  style="overflow:visible;"/>
			</clipPath>
			<g class="st3">
				<path class="st0" d="M71.27,109.33c-20.16,0-36.5-16.34-36.5-36.49c0-20.16,16.34-36.5,36.49-36.5c7.59,0,14.99,2.36,21.17,6.77
					c1.9,1.35,3.66,2.88,5.26,4.58c0.24,0.24,0.24,0.63,0,0.87c0,0,0,0,0,0c-0.24,0.24-0.64,0.24-0.89,0
					c-1.55-1.63-3.25-3.1-5.07-4.41c-2.07-1.46-4.29-2.7-6.61-3.7c-17.9-7.59-38.57,0.76-46.17,18.67s0.76,38.57,18.67,46.17
					c11.89,5.04,25.59,3.17,35.69-4.88c0.28-0.19,0.67-0.11,0.86,0.17c0.16,0.24,0.13,0.57-0.08,0.78
					c-6.48,5.19-14.54,8.02-22.84,8.01"/>
			</g>
		</g>
		<path class="st0" d="M24.08,68.77c0-9.07,7.35-16.43,16.43-16.43s16.43,7.35,16.43,16.43s-7.35,16.43-16.43,16.43l0,0
			C31.44,85.19,24.08,77.84,24.08,68.77"/>
		<path class="st0" d="M61.23,60.25c0-9.07,7.35-16.43,16.43-16.43c9.07,0,16.43,7.35,16.43,16.43s-7.35,16.43-16.43,16.43
			S61.23,69.32,61.23,60.25L61.23,60.25"/>
		<path class="st1" d="M74.33,106.62c-0.73-6.87,4.25-13.04,11.13-13.77c6.87-0.73,13.04,4.25,13.77,11.13
			c0.73,6.87-4.25,13.04-11.13,13.77c0,0,0,0,0,0C81.22,118.47,75.06,113.49,74.33,106.62"/>
		<path class="st1" d="M63.22,37.56c0-6.91,5.6-12.51,12.51-12.51s12.51,5.6,12.51,12.51s-5.6,12.51-12.51,12.51l0,0
			C68.81,50.06,63.22,44.47,63.22,37.56"/>
		<path class="st1" d="M32.83,120.88c0-6.91,5.6-12.51,12.51-12.51s12.51,5.6,12.51,12.51c0,6.91-5.6,12.51-12.51,12.51l0,0
			C38.43,133.39,32.83,127.79,32.83,120.88"/>
		<path class="st4" d="M57.11,94.38c0-2.36,1.91-4.27,4.27-4.27c2.36,0,4.27,1.91,4.27,4.27s-1.91,4.27-4.27,4.27
			S57.11,96.74,57.11,94.38"/>
		<path class="st5" d="M113.26,49.09c-0.31-0.01-0.57-0.24-0.61-0.55c-2.2-17.1-16.33-30.17-33.55-31.04
			c-0.34-0.01-0.6-0.29-0.59-0.63c0-0.01,0-0.01,0-0.02c0.02-0.34,0.31-0.6,0.65-0.59c17.82,0.9,32.45,14.43,34.72,32.13
			c0.04,0.33-0.19,0.64-0.52,0.68c-0.01,0-0.01,0-0.02,0L113.26,49.09"/>
		<path class="st5" d="M90.47,93.84c0-7.88,6.39-14.28,14.28-14.28s14.28,6.39,14.28,14.28s-6.39,14.28-14.28,14.28
			S90.47,101.73,90.47,93.84L90.47,93.84"/>
		<path class="st5" d="M101.79,41.43c0-5.26,4.26-9.52,9.52-9.52s9.52,4.26,9.52,9.52s-4.26,9.52-9.52,9.52
			S101.79,46.69,101.79,41.43"/>
		<path class="st5" d="M39.08,37.56c-0.01-2.36,1.9-4.28,4.26-4.28s4.28,1.9,4.28,4.26s-1.9,4.28-4.26,4.28c0,0-0.01,0-0.01,0
			C41,41.82,39.09,39.91,39.08,37.56"/>
		<path class="st0" d="M80.41,138.55c-1.54-0.63-2.28-2.4-1.64-3.94c0.63-1.54,2.4-2.28,3.94-1.64c1.54,0.63,2.27,2.39,1.64,3.93
			C83.72,138.44,81.96,139.18,80.41,138.55C80.42,138.55,80.41,138.55,80.41,138.55"/>
		<path class="st4" d="M64.94,115.97c0-5.26,4.26-9.52,9.52-9.52c5.26,0,9.52,4.26,9.52,9.52c0,5.26-4.26,9.52-9.52,9.52
			C69.2,125.49,64.94,121.23,64.94,115.97"/>
		<path class="st4" d="M16.19,98.73c0-5.26,4.26-9.52,9.52-9.52s9.52,4.26,9.52,9.52s-4.26,9.52-9.52,9.52S16.19,103.98,16.19,98.73
			"/>
		<path class="st0" d="M9.99,50.29c-1.56-0.64-2.31-2.42-1.68-3.98c0.64-1.56,2.42-2.31,3.98-1.68s2.31,2.42,1.68,3.98
			c0,0,0,0.01,0,0.01C13.32,50.18,11.54,50.93,9.99,50.29"/>
	</g>
</g>
</svg>
