<svg xmlns="http://www.w3.org/2000/svg" width="286.472" height="184" viewBox="0 0 286.472 184"><g transform="translate(-2131.629 -785.603)"><path d="M2307.512,969.6h-97.023V953.565h96.786a16.665,16.665,0,0,0,16.647-16.647V923.267a6.454,6.454,0,0,0-6.446-6.447v-17a23.473,23.473,0,0,1,23.446,23.447v13.651C2340.922,955.472,2326.065,969.6,2307.512,969.6Z" fill="#e6e6e6"/><path d="M2416.95,852.675l-142.085-57.129L2132.78,852.675a1.835,1.835,0,1,0,1.369,3.405L2274.865,799.5l140.716,56.579a1.835,1.835,0,1,0,1.369-3.405Z" fill="#888"/><path d="M2243.727,803.108l31.645-13.517,33.175,14.066a1.834,1.834,0,0,0,1.432-3.378L2275.367,785.6l-33.081,14.13a1.835,1.835,0,0,0,1.441,3.375Z" fill="#888"/><path d="M2299.665,883.878H2196.378c-17.419,0-17.419,50.175,0,50.175h103.287C2316.806,934.053,2316.806,883.878,2299.665,883.878Z" fill="#888"/><rect width="7.656" height="5.33" transform="translate(2283.139 877.13)" fill="#888"/><rect width="7.656" height="5.33" transform="translate(2267.21 877.13)" fill="#888"/><path d="M2339.957,861.365h-92.313a10.312,10.312,0,0,0-10.3,10.3v4.124h3.67v-4.124a6.637,6.637,0,0,1,6.63-6.63h8.055a10.253,10.253,0,0,0-2.426,6.63v4.124h3.67v-4.124a6.637,6.637,0,0,1,6.63-6.63h8.056a10.253,10.253,0,0,0-2.426,6.63v4.124h3.67v-4.124a6.637,6.637,0,0,1,6.63-6.63h8.056a10.247,10.247,0,0,0-2.427,6.63v4.124h3.67v-4.124a6.637,6.637,0,0,1,6.63-6.63h76.383v-3.67h-31.858Z" fill="#e6e6e6"/><rect width="7.655" height="5.33" transform="translate(2251.281 877.13)" fill="#888"/><rect width="7.656" height="5.33" transform="translate(2235.351 877.13)" fill="#888"/><path d="M2361.919,922.765V866.736h-3.67v56.029a7.163,7.163,0,0,0,7.155,7.155h6.411v-3.67H2365.4A3.489,3.489,0,0,1,2361.919,922.765Z" fill="#e6e6e6"/><path d="M2345.989,895.732v-29h-3.67v29a7.163,7.163,0,0,0,7.155,7.155h6.412v-3.67h-6.412A3.489,3.489,0,0,1,2345.989,895.732Z" fill="#d9d9d9"/><path d="M2345.989,859.405V842.677a7.162,7.162,0,0,0-7.155-7.155h-6.412v3.669h6.412a3.489,3.489,0,0,1,3.485,3.486v16.728Z" fill="#d9d9d9"/><rect width="3.67" height="22.444" transform="translate(2358.249 836.96)" fill="#e6e6e6"/><rect width="8.237" height="3.67" transform="translate(2363.579 899.217)" fill="#d9d9d9"/><rect width="57.485" height="9.175" transform="translate(2273.385 832.769)" fill="#888"/><path d="M2212.533,828.466v3.753a6.981,6.981,0,0,0,6.973,6.972H2271.5v-3.669h-51.993a3.307,3.307,0,0,1-3.3-3.3v-3.753Z" fill="#d9d9d9"/><path d="M2183.779,878.784v-5.31h1.357v5.31h7.2a2.054,2.054,0,0,0,2.054-2.053V847.6a2.054,2.054,0,0,0-2.054-2.053h-8.8a2.053,2.053,0,0,0-2.053,2.053v29.134a2.053,2.053,0,0,0,2.053,2.053Zm4.154-30.658a2.129,2.129,0,1,1-2.128,2.128A2.129,2.129,0,0,1,2187.933,848.126Zm0,6.062a2.129,2.129,0,1,1-2.128,2.129A2.129,2.129,0,0,1,2187.933,854.188Z" fill="#888"/><path d="M2208.436,878.784a2.053,2.053,0,0,0,2.053-2.053V847.6a2.053,2.053,0,0,0-2.053-2.053h-8.8a2.053,2.053,0,0,0-2.053,2.053v29.134a2.053,2.053,0,0,0,2.053,2.053h.245v-5.31h1.357v5.31Zm-4.4-30.658a2.129,2.129,0,1,1-2.128,2.128A2.128,2.128,0,0,1,2204.037,848.126Zm0,6.062a2.129,2.129,0,1,1-2.128,2.129A2.129,2.129,0,0,1,2204.037,854.188Z" fill="#d9d9d9"/><path d="M2224.54,878.784a2.053,2.053,0,0,0,2.053-2.053V847.6a2.053,2.053,0,0,0-2.053-2.053h-8.8a2.054,2.054,0,0,0-2.053,2.053v29.134a2.053,2.053,0,0,0,2.053,2.053h.246v-5.31h1.357v5.31Zm-4.4-30.658a2.129,2.129,0,1,1-2.129,2.128A2.128,2.128,0,0,1,2220.141,848.126Zm0,6.062a2.129,2.129,0,1,1-2.129,2.129A2.129,2.129,0,0,1,2220.141,854.188Z" fill="#ececec"/><path d="M2176.1,844.586l-3.652,1.487h0l-1.344.548-5.747,2.342h0l-.572.233v74.187h-2.054v14.361h15.423V923.383H2176.1Zm-4.033,3.624,1.755,1.6-3.379,3.086-3.049-2.784,4.158-1.694Zm2.2,68.765-2.462-2.247,2.462-2.248Zm-3.822-3.49-3.379-3.085,3.379-3.085,3.379,3.085Zm3.822-5.165-2.462-2.247,2.462-2.248Zm-3.822-3.49-3.38-3.085,3.38-3.086,3.379,3.086Zm3.822-5.165-2.462-2.248,2.462-2.248Zm-3.822-3.49-3.38-3.086,3.38-3.085,3.379,3.085Zm3.822-5.166-2.462-2.247,2.462-2.248Zm-3.822-3.49-3.379-3.085,3.379-3.085,3.379,3.085Zm3.822-5.165-2.462-2.248,2.462-2.247Zm-3.822-3.49-3.38-3.085,3.38-3.086,3.379,3.086Zm3.822-5.165-2.462-2.248,2.462-2.248Zm-3.822-3.49-3.38-3.086,3.38-3.085,3.379,3.085Zm3.822-5.166-2.462-2.248,2.462-2.247Zm-3.822-3.49-3.379-3.085,3.379-3.085,3.379,3.085Zm3.822-5.165-2.462-2.248,2.462-2.247Zm-5.183-2.248-2.462,2.248v-4.495Zm0,8.655-2.462,2.248v-4.5Zm0,8.656-2.462,2.248v-4.5Zm0,8.655-2.462,2.248v-4.495Zm0,8.656-2.462,2.247v-4.495Zm0,8.655-2.462,2.248v-4.5Zm0,8.656-2.462,2.247v-4.495Zm0,8.655-2.462,2.247V912.48Zm1.361,1.242,3.379,3.086-3.379,3.085-3.38-3.085Zm1.36,7.413,2.462-2.248v2.248Zm2.462-76.069v.418l-.316-.289Zm-7.645,73.821,2.462,2.248h-2.462Z" fill="#888"/><path d="M2387.87,849.2l-.571-.233h0l-3.442-1.4-3.65-1.488h0l-3.652-1.488v78.8H2374.5v14.361h15.423V923.383h-2.054Zm-1.835,67.779-2.462-2.247,2.462-2.248Zm-3.822-3.49-3.379-3.085,3.379-3.085,3.379,3.085Zm3.822-5.165-2.462-2.247,2.462-2.248Zm-3.822-3.49-3.38-3.085,3.38-3.086,3.379,3.086Zm3.822-5.165-2.462-2.248,2.462-2.248Zm-3.822-3.49-3.38-3.086,3.38-3.085,3.379,3.085Zm3.822-5.166-2.462-2.247,2.462-2.248Zm-3.822-3.49-3.379-3.085,3.379-3.085,3.379,3.085Zm3.822-5.165-2.462-2.248,2.462-2.247Zm-3.822-3.49-3.38-3.085,3.38-3.086,3.379,3.086Zm3.822-5.165-2.462-2.248,2.462-2.248Zm-3.822-3.49-3.38-3.086,3.38-3.085,3.379,3.085Zm3.822-5.166-2.462-2.248,2.462-2.247Zm-3.822-3.49-3.379-3.085,3.379-3.085,3.379,3.085Zm3.822-5.165-2.462-2.248,2.462-2.247Zm-.774-6.274-3.048,2.784-3.379-3.086,1.755-1.6Zm-4.409,4.026-2.462,2.248v-4.495Zm0,8.655-2.462,2.248v-4.5Zm0,8.656-2.462,2.248v-4.5Zm0,8.655-2.462,2.248v-4.495Zm0,8.656-2.462,2.247v-4.495Zm0,8.655-2.462,2.248v-4.5Zm0,8.656-2.462,2.247v-4.495Zm0,8.655-2.462,2.247V912.48Zm1.361,1.242,3.379,3.086-3.379,3.085-3.38-3.085Zm1.36,7.413,2.462-2.248v2.248Zm-4.866-75.94-.317.289v-.418Zm-.317,73.692,2.462,2.248h-2.462Z" fill="#888"/></g></svg>