<svg xmlns="http://www.w3.org/2000/svg" width="208.478" height="224" viewBox="0 0 208.478 224"><g transform="translate(-1822.446 -950.566)"><path d="M1870.86,1037.35h-17v-27.095h17Z" fill="#fff"/><path d="M1870.86,1174.566h-17v-76.795h17Z" fill="#fff"/><rect width="33.265" height="11.897" transform="translate(1845.728 1040.064)" fill="#fff"/><rect width="33.265" height="11.897" transform="translate(1845.728 1082.964)" fill="#fff"/><rect width="28.777" height="26.769" transform="translate(1847.972 1054.078)" fill="#fff"/><path d="M1850.86,997.368v9.887h23v-9.887a23.83,23.83,0,0,1,23.8-23.8h9.674v-23h-9.674A46.855,46.855,0,0,0,1850.86,997.368Z" fill="#fff"/><path d="M1899.814,1054.752a39.9,39.9,0,1,0-23.748,51.168A39.96,39.96,0,0,0,1899.814,1054.752Zm-37.5-23.448a37.226,37.226,0,0,1,34.559,23.433l-30.256,11.073a5.032,5.032,0,0,0-4.266-2.371,4.959,4.959,0,0,0-.727.054l-11.074-30.254A36.955,36.955,0,0,1,1862.318,1031.3Zm-13.686,2.642L1859.7,1064.2a5.028,5.028,0,0,0-2.318,4.994l-30.251,11.072A37.188,37.188,0,0,1,1848.632,1033.946Zm13.758,71.663a37.211,37.211,0,0,1-34.551-23.423l30.251-11.072a5.024,5.024,0,0,0,4.994,2.318l11.072,30.251A36.985,36.985,0,0,1,1862.39,1105.609Zm13.69-2.63-11.072-30.251a5.029,5.029,0,0,0,2.317-4.994l30.251-11.072A37.189,37.189,0,0,1,1876.08,1102.979Z" fill="#00a34b"/><rect width="120.888" height="17" transform="translate(1910.036 953.565)" fill="#fff"/></g></svg>