<svg xmlns="http://www.w3.org/2000/svg" width="79.974" height="203" viewBox="0 0 79.974 203"><g transform="translate(-2234.983 -950.566)"><path d="M2311.385,950.566h-73v23h13a11.754,11.754,0,0,1,12,12v22h23v-22c0-6.827,6.173-12,13-12h12Z" fill="#00a34b"/><path d="M2266.385,1009.566h17v28h-17Z" fill="#e6e6e6"/><path d="M2266.385,1097.566h17v56h-17Z" fill="#e6e6e6"/><rect width="33.265" height="11.897" transform="translate(2291.918 1051.7) rotate(-180)" fill="#00a34b"/><rect width="33.265" height="11.897" transform="translate(2291.918 1094.6) rotate(-180)" fill="#00a34b"/><rect width="28.777" height="26.769" transform="translate(2289.674 1080.586) rotate(-180)" fill="#00a34b"/><path d="M2261.385,1105.566c4.508,1.651,9.457,3,14,3,16.272,0,31.09-10.854,37-27a38.357,38.357,0,0,0-1-30c-4.485-9.665-12-17.338-22-21a40.973,40.973,0,0,0-14-2c-16.272,0-32.091,9.856-38,26C2229.825,1075.221,2240.732,1098.007,2261.385,1105.566Zm26-73-11,31a9.263,9.263,0,0,0-1,0,4.276,4.276,0,0,0-4,2l-31-11a37.419,37.419,0,0,1,47-22Zm23,47-30-11a4.832,4.832,0,0,0-2-5l11-30C2307.677,1040.832,2316.643,1060.907,2310.385,1079.566Zm-47,24,11-30a9.263,9.263,0,0,0,1,0c1.716,0,3.079-1.515,4-3l30,11c-5.751,14.477-19.171,24-34,24A38.508,38.508,0,0,1,2263.385,1103.566Zm-23-47,30,11a4.833,4.833,0,0,0,2,5l-11,30C2243.094,1095.3,2234.128,1075.226,2240.385,1056.566Z" fill="#444"/></g></svg>