<svg xmlns="http://www.w3.org/2000/svg" width="208.48" height="224" viewBox="0 0 208.48 224"><g transform="translate(-2521.727 -950.566)"><path d="M2681.793,1010.255h17v27.095h-17Z" fill="#fff"/><path d="M2681.793,1097.771h17v76.795h-17Z" fill="#fff"/><rect width="33.265" height="11.897" transform="translate(2706.926 1051.961) rotate(-180)" fill="#fff"/><rect width="33.265" height="11.897" transform="translate(2706.926 1094.862) rotate(-180)" fill="#fff"/><rect width="28.777" height="26.769" transform="translate(2704.682 1080.847) rotate(-180)" fill="#fff"/><path d="M2701.793,997.368v9.887h-23v-9.887a23.83,23.83,0,0,0-23.8-23.8h-9.674v-23h9.674A46.855,46.855,0,0,1,2701.793,997.368Z" fill="#fff"/><path d="M2676.588,1105.92a39.89,39.89,0,1,0-23.748-51.168A39.686,39.686,0,0,0,2676.588,1105.92Zm25.511-72.681-11.073,30.254a4.96,4.96,0,0,0-.728-.054,5.033,5.033,0,0,0-4.266,2.371l-30.256-11.073a37.108,37.108,0,0,1,46.323-21.5Zm23.419,47.024-30.251-11.072a5.025,5.025,0,0,0-2.317-4.994l11.072-30.251A37.188,37.188,0,0,1,2725.518,1080.263Zm-47.02,23.42,11.072-30.251a4.959,4.959,0,0,0,.728.053,5.027,5.027,0,0,0,4.265-2.371l30.251,11.072a37.136,37.136,0,0,1-46.316,21.5Zm-23.42-47.021,30.25,11.072a5.028,5.028,0,0,0,2.318,4.994l-11.072,30.251A37.188,37.188,0,0,1,2655.078,1056.662Z" fill="#00a34b"/><rect width="120.89" height="17" transform="translate(2642.617 970.565) rotate(-180)" fill="#fff"/></g></svg>